<svg xmlns="http://www.w3.org/2000/svg" xmlns:xlink="http://www.w3.org/1999/xlink" width="588.079" height="550" viewBox="0 0 588.079 550"><defs><style>.a{fill:#ffd3c9;}.b{fill:#575a89;}.c{opacity:0.2;}.d{fill:#3f3d56;}.e{fill:#2f2e41;}.f{opacity:0.1;}.g{fill:#fba342;}.h{fill:none;}.i{mix-blend-mode:hue;isolation:isolate;fill:url(#a);}.j,.k{stroke:none;}.k{fill:#fba342;}</style><linearGradient id="a" x1="0.198" y1="0.153" x2="0.851" y2="0.77" gradientUnits="objectBoundingBox"><stop offset="0" stop-color="#fba342"/><stop offset="1" stop-color="#fbc241"/></linearGradient></defs><g transform="translate(0 0)"><path class="a" d="M830.655,604.414s72.753,3.761,55.808,26.664-61.473-13.435-61.473-13.435Z" transform="translate(-362.271 -213.647)"/><path class="b" d="M645.89,313.448l14.809,3.7s8.638,25.915,14.809,49.362,18.51,93.788,18.51,93.788l95.672,67.05-11.411,25.526L650.826,502.644l-28.383-111.45Z" transform="translate(-311.578 -140.824)"/><path class="c" d="M455.24,291.607,449.72,407.188l11.517,34.363L427.5,416.81Z" transform="translate(-106.995 -72.983)"/><path d="M641.765,643.055s16.043,43.192,18.511,72.809,4.936,53.064,4.936,53.064H589.935l-14.809-22.213v22.212H487.509s-24.681-80.213-14.808-90.085,103.66-51.83,103.66-51.83Z" transform="translate(-273.517 -219.303)"/><rect class="d" width="435.587" height="1.499" transform="translate(76.097 548.501)"/><circle class="a" cx="46.894" cy="46.894" r="46.894" transform="translate(226.95 31.943)"/><path class="a" d="M524.092,214.688l-3.7,54.3,46.894,62.936,23.447-59.234s-20.979-13.575-8.638-41.957Z" transform="translate(-286.036 -116.106)"/><path class="b" d="M636.351,561.137c0,11.111-30.851,28.385-30.851,28.385v6.17l-12.34,6.17-27.147-54.295-7.4,59.228s-54.3,8.644-71.576,0-25.918-4.933-50.6-13.57,9.874-124.641,9.874-124.641L421.631,289.648l53.92-26.96,2.841-1.424,7.415-1.364,11.366-2.1,37.988,25.678,3.059,16.044L540.1,309.4l9.866-11.111,7.452-24.508,53.02,29.449L595.634,421.689S636.351,550.034,636.351,561.137Z" transform="translate(-261.318 -126.896)"/><path class="a" d="M461.952,713.428s56.766,45.66,29.617,54.3-41.958-46.894-41.958-46.894Z" transform="translate(-268.322 -240.931)"/><path class="b" d="M421.611,302.748l-12.34-2.468s-18.511,9.872-19.745,29.617S372.25,487.855,372.25,487.855L424.08,627.3l41.957-16.043L425.314,480.451l30.851-113.532Z" transform="translate(-248.959 -137.528)"/><circle class="e" cx="4.498" cy="4.498" r="4.498" transform="translate(274.772 193.883)"/><circle class="e" cx="4.498" cy="4.498" r="4.498" transform="translate(274.772 223.122)"/><circle class="e" cx="4.498" cy="4.498" r="4.498" transform="translate(300.263 415.8)"/><path d="M516.157,113.993l-8.669-3.47s18.125-19.955,43.342-18.22l-7.092-7.808s17.337-6.941,33.1,11.279c8.285,9.578,17.871,20.836,23.847,33.518h9.283l-3.875,8.531,13.561,8.531-13.919-1.532a47.671,47.671,0,0,1,.378,14.151,18.309,18.309,0,0,1-6.7,11.978h0s-10.751-22.253-10.751-25.723V153.9s-8.669-7.808-8.669-13.014l-4.728,6.073H543.738l4.728-7.808-18.125,2.6,7.093-9.544-28.063,39.409S493.3,127.007,516.157,113.993Z" transform="translate(-281.905 -83.197)"/><circle cx="74.972" cy="74.972" r="74.972" transform="translate(438.135 212.579)"/><circle class="f" cx="64.476" cy="64.476" r="64.476" transform="translate(448.631 223.076)"/><path class="c" d="M250.005,503.6l29.985,93.665L256,499.8Z" transform="translate(-62.571 -125.091)"/><path d="M246.5,332.777H227.463a3.132,3.132,0,0,1-3.129-3.129v-27.36a3.132,3.132,0,0,1,3.129-3.129H246.5a3.132,3.132,0,0,1,3.129,3.129v27.36a3.132,3.132,0,0,1-3.129,3.129Zm-19.033-32.118a1.631,1.631,0,0,0-1.629,1.629v27.36a1.631,1.631,0,0,0,1.63,1.629H246.5a1.632,1.632,0,0,0,1.629-1.629v-27.36a1.631,1.631,0,0,0-1.629-1.629Z" transform="translate(-211.939 -137.248)"/><path d="M293.174,322.85H275.986a4.056,4.056,0,0,1-4.051-4.051V263.545a4.056,4.056,0,0,1,4.051-4.051h17.188a4.056,4.056,0,0,1,4.051,4.051V318.8A4.056,4.056,0,0,1,293.174,322.85Zm-17.188-61.857a2.555,2.555,0,0,0-2.552,2.552V318.8a2.555,2.555,0,0,0,2.552,2.552h17.188a2.555,2.555,0,0,0,2.552-2.552V263.545a2.555,2.555,0,0,0-2.552-2.552Z" transform="translate(-223.852 -127.32)"/><path class="d" d="M340.11,313.716H324.25A4.72,4.72,0,0,1,319.535,309V227.715A4.72,4.72,0,0,1,324.25,223h15.861a4.72,4.72,0,0,1,4.715,4.715V309a4.72,4.72,0,0,1-4.715,4.715ZM324.25,224.5a3.219,3.219,0,0,0-3.216,3.216V309a3.219,3.219,0,0,0,3.216,3.216h15.861A3.219,3.219,0,0,0,343.326,309V227.715a3.219,3.219,0,0,0-3.216-3.216Z" transform="translate(-235.766 -118.187)"/><rect class="g" width="14.275" height="23.196" transform="translate(17.903 167.122)"/><rect class="g" width="14.275" height="52.638" transform="translate(53.59 137.681)"/><rect class="g" width="14.275" height="79.997" transform="translate(89.277 110.321)"/><path d="M897.263,194.712H797.551a.75.75,0,0,1-.75-.75V92.75a.75.75,0,1,1,1.5,0V193.212h98.963a.75.75,0,1,1,0,1.5Z" transform="translate(-355.216 -85.4)"/><path d="M327.007,318.206H208.551a.75.75,0,0,1-.75-.75V199.75a.75.75,0,1,1,1.5,0V316.706H327.007a.75.75,0,1,1,0,1.5Z" transform="translate(-207.801 -112.18)"/><path d="M836.3,205.245H817.268a3.132,3.132,0,0,1-3.129-3.129V174.756a3.132,3.132,0,0,1,3.129-3.129H836.3a3.132,3.132,0,0,1,3.129,3.129v27.36A3.132,3.132,0,0,1,836.3,205.245Zm-19.033-32.118a1.632,1.632,0,0,0-1.63,1.629v27.36a1.632,1.632,0,0,0,1.63,1.629H836.3a1.631,1.631,0,0,0,1.629-1.629v-27.36a1.631,1.631,0,0,0-1.629-1.629Z" transform="translate(-359.555 -105.329)"/><path class="d" d="M888.544,197.329H871.026a3.891,3.891,0,0,1-3.886-3.887V143.887A3.891,3.891,0,0,1,871.026,140h17.518a3.89,3.89,0,0,1,3.886,3.886v49.556a3.891,3.891,0,0,1-3.886,3.887ZM871.026,141.5a2.389,2.389,0,0,0-2.387,2.387v49.556a2.389,2.389,0,0,0,2.387,2.387h17.518a2.389,2.389,0,0,0,2.387-2.387V143.887a2.389,2.389,0,0,0-2.387-2.387Z" transform="translate(-372.82 -97.413)"/><rect class="g" width="14.275" height="23.196" transform="translate(459.749 71.768)"/><rect class="g" width="14.275" height="44.881" transform="translate(499.827 48.811)"/><circle class="g" cx="6.747" cy="6.747" r="6.747" transform="translate(460.328 44.836)"/><circle class="g" cx="6.747" cy="6.747" r="6.747" transform="translate(500.063 19.345)"/><g class="h" transform="translate(547.539 243) rotate(90)"><path class="j" d="M62.04,0a10,10,0,0,1,8.412,4.592l16.071,25a10,10,0,0,1,0,10.815l-16.071,25A10,10,0,0,1,62.04,70H27.96a10,10,0,0,1-8.412-4.592l-16.071-25a10,10,0,0,1,0-10.815l16.071-25A10,10,0,0,1,27.96,0Z"/><path class="k" d="M 27.95952224731445 5.000007629394531 C 26.25022888183594 5.000007629394531 24.67792510986328 5.858406066894531 23.75361633300781 7.29620361328125 L 7.682197570800781 32.29621887207031 C 6.626304626464844 33.93869781494141 6.626304626464844 36.06129455566406 7.682182312011719 37.70378875732422 L 23.75361633300781 62.70378875732422 C 24.67792510986328 64.1416015625 26.25021362304688 65 27.95950698852539 65 L 62.04049301147461 65 C 63.74977111816406 65 65.32207489013672 64.1416015625 66.24638366699219 62.70378875732422 L 82.31780242919922 37.70377349853516 C 83.37369537353516 36.06129455566406 83.37369537353516 33.93869781494141 82.31780242919922 32.29620361328125 L 66.24639892578125 7.296234130859375 C 65.32207489013672 5.858406066894531 63.74977111816406 5.000007629394531 62.04049301147461 5.000007629394531 L 27.95952224731445 5.000007629394531 M 27.95952224731445 7.62939453125e-06 L 62.04049301147461 7.62939453125e-06 C 65.44312286376953 7.62939453125e-06 68.61225891113281 1.730201721191406 70.45227813720703 4.592422485351563 L 86.52368927001953 29.5924186706543 C 88.64132690429688 32.88649749755859 88.64132690429688 37.11349487304688 86.52368927001953 40.40757369995117 L 70.45227813720703 65.40756988525391 C 68.61225891113281 68.26980590820313 65.44312286376953 70 62.04049301147461 70 L 27.95950698852539 70 C 24.55686187744141 70 21.38772583007813 68.26980590820313 19.54772186279297 65.40756988525391 L 3.476295471191406 40.40757369995117 C 1.358680725097656 37.11349487304688 1.358680725097656 32.88649749755859 3.476310729980469 29.5924186706543 L 19.54772186279297 4.592422485351563 C 21.38774108886719 1.730201721191406 24.55687713623047 7.62939453125e-06 27.95952224731445 7.62939453125e-06 Z"/></g><path class="g" d="M24.313,57.168a5,5,0,0,1-2.6-.728L2.4,44.695A5.027,5.027,0,0,1,0,40.424V16.476A5.03,5.03,0,0,1,2.4,12.2L21.715.459a5,5,0,0,1,5.2,0L46.225,12.2a5.03,5.03,0,0,1,2.4,4.272V40.424a5.027,5.027,0,0,1-2.4,4.271L26.912,56.44A5,5,0,0,1,24.313,57.168ZM13.143,18.593V38.307H34.17V18.593H13.143Z" transform="translate(488.883 258.894)"/><path class="i" d="M62.04,0a10,10,0,0,1,8.412,4.592l16.071,25a10,10,0,0,1,0,10.815l-16.071,25A10,10,0,0,1,62.04,70H27.96a10,10,0,0,1-8.412-4.592l-16.071-25a10,10,0,0,1,0-10.815l16.071-25A10,10,0,0,1,27.96,0Z" transform="translate(547.539 243) rotate(90)"/></g></svg>