<svg xmlns="http://www.w3.org/2000/svg" width="44" height="44" viewBox="0 0 44 44"><path d="M34.833,0H9.167A9.168,9.168,0,0,0,0,9.167V34.833A9.168,9.168,0,0,0,9.167,44H34.833A9.166,9.166,0,0,0,44,34.833V9.167A9.166,9.166,0,0,0,34.833,0Zm-.255,16.935c.383,8.464-5.929,17.9-17.105,17.9a17.025,17.025,0,0,1-9.225-2.7,12.108,12.108,0,0,0,8.91-2.491,6.023,6.023,0,0,1-5.621-4.18,6.051,6.051,0,0,0,2.717-.1,6.024,6.024,0,0,1-4.827-5.977,5.988,5.988,0,0,0,2.724.753A6.029,6.029,0,0,1,10.289,12.1a17.087,17.087,0,0,0,12.4,6.288A6.022,6.022,0,0,1,32.949,12.9a12.069,12.069,0,0,0,3.824-1.459,6.043,6.043,0,0,1-2.646,3.329,12.06,12.06,0,0,0,3.456-.948,12.21,12.21,0,0,1-3,3.111Z" fill="#797979"/></svg>