<svg xmlns="http://www.w3.org/2000/svg" width="44" height="44" viewBox="0 0 44 44"><path d="M26.69,29.016a.45.45,0,0,1,0,.64c-.974.97-2.5,1.441-4.673,1.441l-.017,0-.016,0c-2.173,0-3.7-.471-4.673-1.441a.45.45,0,0,1,0-.64.458.458,0,0,1,.643,0c.794.79,2.112,1.175,4.031,1.175l.017,0,.016,0c1.918,0,3.236-.385,4.031-1.175a.45.45,0,0,1,.64,0Zm-.231-6.992a1.924,1.924,0,1,0,1.932,1.925A1.931,1.931,0,0,0,26.459,22.024Zm-6.978,1.925a1.933,1.933,0,1,0-1.932,1.923A1.931,1.931,0,0,0,19.481,23.949ZM44,9.167V34.833A9.166,9.166,0,0,1,34.833,44H9.167A9.168,9.168,0,0,1,0,34.833V9.167A9.168,9.168,0,0,1,9.167,0H34.833A9.166,9.166,0,0,1,44,9.167ZM36.667,21.731a3.244,3.244,0,0,0-5.5-2.323,16.751,16.751,0,0,0-8.519-2.5L24.462,11.2l4.908,1.151-.007.071a2.666,2.666,0,1,0,.187-.959l-5.291-1.239a.451.451,0,0,0-.537.3L21.7,16.892a16.944,16.944,0,0,0-8.923,2.475,3.227,3.227,0,1,0-3.833,5.139,5.877,5.877,0,0,0-.1,1.049c0,4.78,5.878,8.668,13.1,8.668s13.1-3.888,13.1-8.668a5.748,5.748,0,0,0-.092-.99,3.223,3.223,0,0,0,1.718-2.834Z" fill="#797979"/></svg>