<svg xmlns="http://www.w3.org/2000/svg" width="38.5" height="44" viewBox="0 0 38.5 44"><defs><style>.a{fill:#797979;fill-rule:evenodd}</style></defs><path d="M34.99,0A4.521,4.521,0,0,1,39.5,4.532V44l-4.73-4.18-2.662-2.464-2.816-2.618,1.166,4.07H5.51A4.521,4.521,0,0,1,1,34.276V4.532A4.521,4.521,0,0,1,5.51,0H34.99ZM26.5,28.732c4.862-.154,6.732-3.344,6.732-3.344a29.461,29.461,0,0,0-3.168-12.826,10.879,10.879,0,0,0-6.182-2.31l-.308.352A14.642,14.642,0,0,1,29.05,13.4a17.934,17.934,0,0,0-6.622-2.112,18.615,18.615,0,0,0-4.444.044l-.374.044a16.521,16.521,0,0,0-4.994,1.386c-.814.374-1.3.638-1.3.638A14.842,14.842,0,0,1,17.1,10.516l-.22-.264a10.879,10.879,0,0,0-6.182,2.31A29.461,29.461,0,0,0,7.534,25.388s1.848,3.19,6.71,3.344c0,0,.814-.99,1.474-1.826a6.842,6.842,0,0,1-3.85-2.6l.616.374.088.066.086.049.026.011.086.05a12.893,12.893,0,0,0,1.606.748,18.467,18.467,0,0,0,3.234.946,15.412,15.412,0,0,0,5.7.022,14.48,14.48,0,0,0,3.19-.946,12.589,12.589,0,0,0,2.53-1.3,6.942,6.942,0,0,1-3.982,2.618c.66.836,1.452,1.782,1.452,1.782ZM16.268,18.458a2.451,2.451,0,0,0,0,4.884A2.344,2.344,0,0,0,18.512,20.9,2.33,2.33,0,0,0,16.268,18.458Zm8.03,0A2.451,2.451,0,1,0,26.542,20.9,2.344,2.344,0,0,0,24.3,18.458Z" class="a" transform="translate(-1)"/></svg>